<svg width="1800" height="932" viewBox="0 0 1800 932" fill="none" xmlns="http://www.w3.org/2000/svg">
<g clip-path="url(#clip0_1_2)">
<rect width="1800" height="932" fill="#FFE4C4"/>
<circle cx="359" cy="266" r="310" fill="url(#paint0_radial_1_2)"/>
<ellipse cx="1267" cy="705" rx="367" ry="356" fill="url(#paint1_radial_1_2)"/>
<path d="M524.338 302.399C524.338 305.742 523.829 308.794 522.812 311.555C521.867 314.244 520.123 316.569 517.58 318.531C515.109 320.42 511.694 321.91 507.334 323C502.974 324.09 497.415 324.635 490.657 324.635C483.899 324.635 478.34 324.09 473.98 323C469.62 321.91 466.168 320.42 463.625 318.531C461.154 316.569 459.41 314.244 458.393 311.555C457.448 308.794 456.976 305.742 456.976 302.399V248.444C456.976 247.063 457.267 246.082 457.848 245.501C458.502 244.847 459.519 244.52 460.9 244.52H478.013C479.394 244.52 480.375 244.847 480.956 245.501C481.61 246.082 481.937 247.063 481.937 248.444V298.148C481.937 299.601 482.482 300.837 483.572 301.854C484.662 302.799 487.096 303.271 490.875 303.271C494.726 303.271 497.197 302.799 498.287 301.854C499.377 300.837 499.922 299.601 499.922 298.148V248.444C499.922 247.063 500.213 246.082 500.794 245.501C501.448 244.847 502.465 244.52 503.846 244.52H520.414C521.795 244.52 522.776 244.847 523.357 245.501C524.011 246.082 524.338 247.063 524.338 248.444V302.399ZM559.119 323H542.769C541.389 323 540.371 322.709 539.717 322.128C539.136 321.474 538.845 320.457 538.845 319.076V248.444C538.845 247.063 539.136 246.082 539.717 245.501C540.371 244.847 541.389 244.52 542.769 244.52H554.105C555.486 244.52 556.649 244.738 557.593 245.174C558.611 245.61 559.592 246.373 560.536 247.463L581.682 271.661V248.444C581.682 247.063 581.973 246.082 582.554 245.501C583.208 244.847 584.226 244.52 585.606 244.52H601.956C603.337 244.52 604.318 244.847 604.899 245.501C605.553 246.082 605.88 247.063 605.88 248.444V319.076C605.88 320.457 605.553 321.474 604.899 322.128C604.318 322.709 603.337 323 601.956 323H585.606C584.226 323 583.208 322.709 582.554 322.128C581.973 321.474 581.682 320.457 581.682 319.076V305.669L563.043 283.106V319.076C563.043 320.457 562.716 321.474 562.062 322.128C561.481 322.709 560.5 323 559.119 323ZM666.216 323H649.321C647.94 323 646.923 322.709 646.269 322.128C645.688 321.474 645.397 320.457 645.397 319.076V248.444C645.397 247.063 645.688 246.082 646.269 245.501C646.923 244.847 647.94 244.52 649.321 244.52H666.216C667.597 244.52 668.578 244.847 669.159 245.501C669.813 246.082 670.14 247.063 670.14 248.444V272.097H688.343V248.444C688.343 247.063 688.634 246.082 689.215 245.501C689.869 244.847 690.886 244.52 692.267 244.52H709.162C710.543 244.52 711.524 244.847 712.105 245.501C712.759 246.082 713.086 247.063 713.086 248.444V319.076C713.086 320.457 712.759 321.474 712.105 322.128C711.524 322.709 710.543 323 709.162 323H692.267C690.886 323 689.869 322.709 689.215 322.128C688.634 321.474 688.343 320.457 688.343 319.076V294.878H670.14V319.076C670.14 320.457 669.813 321.474 669.159 322.128C668.578 322.709 667.597 323 666.216 323ZM782.605 323H732.029C730.648 323 729.631 322.709 728.977 322.128C728.396 321.474 728.105 320.457 728.105 319.076V248.444C728.105 247.063 728.396 246.082 728.977 245.501C729.631 244.847 730.648 244.52 732.029 244.52H782.605C783.986 244.52 784.967 244.847 785.548 245.501C786.202 246.082 786.529 247.063 786.529 248.444V261.197C786.529 262.578 786.202 263.595 785.548 264.249C784.967 264.83 783.986 265.121 782.605 265.121H752.521V273.514H773.776C775.157 273.514 776.138 273.841 776.719 274.495C777.373 275.076 777.7 276.057 777.7 277.438V289.101C777.7 290.482 777.373 291.499 776.719 292.153C776.138 292.734 775.157 293.025 773.776 293.025H752.521V302.399H782.605C783.986 302.399 784.967 302.726 785.548 303.38C786.202 303.961 786.529 304.942 786.529 306.323V319.076C786.529 320.457 786.202 321.474 785.548 322.128C784.967 322.709 783.986 323 782.605 323ZM858.828 323H803.347C801.967 323 800.949 322.709 800.295 322.128C799.714 321.474 799.423 320.457 799.423 319.076V248.444C799.423 247.063 799.714 246.082 800.295 245.501C800.949 244.847 801.967 244.52 803.347 244.52H820.242C821.623 244.52 822.604 244.847 823.185 245.501C823.839 246.082 824.166 247.063 824.166 248.444V302.399H839.099V284.741C839.099 283.36 839.39 282.379 839.971 281.798C840.625 281.144 841.643 280.817 843.023 280.817H858.828C860.209 280.817 861.19 281.144 861.771 281.798C862.425 282.379 862.752 283.36 862.752 284.741V319.076C862.752 320.457 862.425 321.474 861.771 322.128C861.19 322.709 860.209 323 858.828 323ZM934.617 323H879.136C877.756 323 876.738 322.709 876.084 322.128C875.503 321.474 875.212 320.457 875.212 319.076V248.444C875.212 247.063 875.503 246.082 876.084 245.501C876.738 244.847 877.756 244.52 879.136 244.52H896.031C897.412 244.52 898.393 244.847 898.974 245.501C899.628 246.082 899.955 247.063 899.955 248.444V302.399H914.888V284.741C914.888 283.36 915.179 282.379 915.76 281.798C916.414 281.144 917.432 280.817 918.812 280.817H934.617C935.998 280.817 936.979 281.144 937.56 281.798C938.214 282.379 938.541 283.36 938.541 284.741V319.076C938.541 320.457 938.214 321.474 937.56 322.128C936.979 322.709 935.998 323 934.617 323ZM1017.49 302.399C1017.49 305.742 1016.98 308.794 1015.97 311.555C1015.02 314.244 1013.28 316.569 1010.73 318.531C1008.26 320.42 1004.81 321.91 1000.38 323C996.018 324.09 990.459 324.635 983.701 324.635C976.943 324.635 971.348 324.09 966.915 323C962.483 321.91 958.995 320.42 956.451 318.531C953.981 316.569 952.237 314.244 951.219 311.555C950.275 308.794 949.802 305.742 949.802 302.399V265.23C949.802 261.887 950.275 258.872 951.219 256.183C952.237 253.422 953.981 251.06 956.451 249.098C958.995 247.136 962.483 245.61 966.915 244.52C971.348 243.43 976.943 242.885 983.701 242.885C990.459 242.885 996.018 243.43 1000.38 244.52C1004.81 245.61 1008.26 247.136 1010.73 249.098C1013.28 251.06 1015.02 253.422 1015.97 256.183C1016.98 258.872 1017.49 261.887 1017.49 265.23V302.399ZM974.545 298.475C974.545 299.928 975.09 301.164 976.18 302.181C977.27 303.126 979.777 303.598 983.701 303.598C987.625 303.598 990.132 303.126 991.222 302.181C992.312 301.164 992.857 299.928 992.857 298.475V269.154C992.857 267.773 992.312 266.611 991.222 265.666C990.132 264.649 987.625 264.14 983.701 264.14C979.777 264.14 977.27 264.649 976.18 265.666C975.09 266.611 974.545 267.773 974.545 269.154V298.475ZM513.874 375.52H530.115C531.496 375.52 532.477 375.847 533.058 376.501C533.712 377.082 534.039 378.063 534.039 379.444V421.736C534.039 424.061 533.93 426.241 533.712 428.276C533.567 430.238 533.022 432.563 532.077 435.252L526.627 450.076C526.264 451.166 525.719 452.111 524.992 452.91C524.338 453.637 523.43 454 522.267 454H507.77C506.607 454 505.554 453.746 504.609 453.237C503.664 452.728 503.047 451.893 502.756 450.73L497.742 432.963C497.524 432.236 497.233 431.764 496.87 431.546C496.579 431.255 496.216 431.11 495.78 431.11H494.799C494.363 431.11 493.963 431.255 493.6 431.546C493.309 431.764 493.055 432.236 492.837 432.963L487.714 450.73C487.423 451.82 486.878 452.656 486.079 453.237C485.28 453.746 484.299 454 483.136 454H468.748C467.585 454 466.568 453.637 465.696 452.91C464.897 452.183 464.315 451.239 463.952 450.076L458.502 435.034C457.557 432.345 456.976 430.02 456.758 428.058C456.613 426.023 456.54 423.843 456.54 421.518V379.444C456.54 378.063 456.831 377.082 457.412 376.501C458.066 375.847 459.083 375.52 460.464 375.52H477.25C478.631 375.52 479.612 375.847 480.193 376.501C480.847 377.082 481.174 378.063 481.174 379.444V419.556L487.496 405.822C488.077 404.587 488.84 403.715 489.785 403.206C490.73 402.697 491.892 402.443 493.273 402.443H497.851C499.232 402.443 500.394 402.697 501.339 403.206C502.284 403.715 503.047 404.587 503.628 405.822L509.95 419.556V379.444C509.95 378.063 510.241 377.082 510.822 376.501C511.476 375.847 512.493 375.52 513.874 375.52ZM614.596 433.399C614.596 436.742 614.087 439.794 613.07 442.555C612.125 445.244 610.381 447.569 607.838 449.531C605.367 451.42 601.916 452.91 597.483 454C593.123 455.09 587.564 455.635 580.806 455.635C574.048 455.635 568.453 455.09 564.02 454C559.587 452.91 556.099 451.42 553.556 449.531C551.085 447.569 549.341 445.244 548.324 442.555C547.379 439.794 546.907 436.742 546.907 433.399V396.23C546.907 392.887 547.379 389.872 548.324 387.183C549.341 384.422 551.085 382.06 553.556 380.098C556.099 378.136 559.587 376.61 564.02 375.52C568.453 374.43 574.048 373.885 580.806 373.885C587.564 373.885 593.123 374.43 597.483 375.52C601.916 376.61 605.367 378.136 607.838 380.098C610.381 382.06 612.125 384.422 613.07 387.183C614.087 389.872 614.596 392.887 614.596 396.23V433.399ZM571.65 429.475C571.65 430.928 572.195 432.164 573.285 433.181C574.375 434.126 576.882 434.598 580.806 434.598C584.73 434.598 587.237 434.126 588.327 433.181C589.417 432.164 589.962 430.928 589.962 429.475V400.154C589.962 398.773 589.417 397.611 588.327 396.666C587.237 395.649 584.73 395.14 580.806 395.14C576.882 395.14 574.375 395.649 573.285 396.666C572.195 397.611 571.65 398.773 571.65 400.154V429.475ZM653.106 395.14V409.092H661.281C663.171 409.092 664.442 408.62 665.096 407.675C665.75 406.658 666.077 405.422 666.077 403.969V400.263C666.077 398.81 665.75 397.611 665.096 396.666C664.442 395.649 663.171 395.14 661.281 395.14H653.106ZM649.182 454H632.396C631.016 454 629.998 453.709 629.344 453.128C628.763 452.474 628.472 451.457 628.472 450.076V379.444C628.472 378.063 628.763 377.082 629.344 376.501C629.998 375.847 631.016 375.52 632.396 375.52H668.693C676.832 375.52 682.427 377.228 685.479 380.643C688.604 383.986 690.166 388.346 690.166 393.723V398.737C690.166 401.789 689.694 404.405 688.749 406.585C687.877 408.692 686.315 410.218 684.062 411.163C687.986 411.599 691.147 413.198 693.545 415.959C696.016 418.72 697.251 422.39 697.251 426.968V450.076C697.251 451.457 696.924 452.474 696.27 453.128C695.689 453.709 694.708 454 693.327 454H676.432C675.052 454 674.034 453.709 673.38 453.128C672.799 452.474 672.508 451.457 672.508 450.076V433.399C672.508 431.8 672.181 430.638 671.527 429.911C670.946 429.112 669.892 428.712 668.366 428.712H653.106V450.076C653.106 451.457 652.779 452.474 652.125 453.128C651.544 453.709 650.563 454 649.182 454ZM768.882 454H713.401C712.02 454 711.003 453.709 710.349 453.128C709.768 452.474 709.477 451.457 709.477 450.076V379.444C709.477 378.063 709.768 377.082 710.349 376.501C711.003 375.847 712.02 375.52 713.401 375.52H730.296C731.677 375.52 732.658 375.847 733.239 376.501C733.893 377.082 734.22 378.063 734.22 379.444V433.399H749.153V415.741C749.153 414.36 749.444 413.379 750.025 412.798C750.679 412.144 751.696 411.817 753.077 411.817H768.882C770.263 411.817 771.244 412.144 771.825 412.798C772.479 413.379 772.806 414.36 772.806 415.741V450.076C772.806 451.457 772.479 452.474 771.825 453.128C771.244 453.709 770.263 454 768.882 454ZM825.923 454H789.19C787.809 454 786.792 453.709 786.138 453.128C785.557 452.474 785.266 451.457 785.266 450.076V379.444C785.266 378.063 785.557 377.082 786.138 376.501C786.792 375.847 787.809 375.52 789.19 375.52H825.923C835.006 375.52 841.728 377.337 846.088 380.97C850.521 384.603 852.737 390.199 852.737 397.756V431.764C852.737 439.321 850.521 444.917 846.088 448.55C841.728 452.183 835.006 454 825.923 454ZM810.009 396.339V433.399H822.98C824.724 433.399 825.996 432.963 826.795 432.091C827.667 431.219 828.103 429.875 828.103 428.058V401.571C828.103 399.754 827.667 398.446 826.795 397.647C825.996 396.775 824.724 396.339 822.98 396.339H810.009Z" fill="#040F48"/>
<path d="M509.966 625.093C509.966 627.025 509.672 628.789 509.084 630.385C508.538 631.939 507.53 633.283 506.06 634.417C504.632 635.509 502.658 636.37 500.138 637C497.618 637.63 494.405 637.945 490.499 637.945C486.593 637.945 483.38 637.63 480.86 637C478.34 636.37 476.345 635.509 474.875 634.417C473.447 633.283 472.439 631.939 471.851 630.385C471.305 628.789 471.032 627.025 471.032 625.093V593.908C471.032 593.11 471.2 592.543 471.536 592.207C471.914 591.829 472.502 591.64 473.3 591.64H483.191C483.989 591.64 484.556 591.829 484.892 592.207C485.27 592.543 485.459 593.11 485.459 593.908V622.636C485.459 623.476 485.774 624.19 486.404 624.778C487.034 625.324 488.441 625.597 490.625 625.597C492.851 625.597 494.279 625.324 494.909 624.778C495.539 624.19 495.854 623.476 495.854 622.636V593.908C495.854 593.11 496.022 592.543 496.358 592.207C496.736 591.829 497.324 591.64 498.122 591.64H507.698C508.496 591.64 509.063 591.829 509.399 592.207C509.777 592.543 509.966 593.11 509.966 593.908V625.093ZM530.069 637H520.619C519.821 637 519.233 636.832 518.855 636.496C518.519 636.118 518.351 635.53 518.351 634.732V593.908C518.351 593.11 518.519 592.543 518.855 592.207C519.233 591.829 519.821 591.64 520.619 591.64H527.171C527.969 591.64 528.641 591.766 529.187 592.018C529.775 592.27 530.342 592.711 530.888 593.341L543.11 607.327V593.908C543.11 593.11 543.278 592.543 543.614 592.207C543.992 591.829 544.58 591.64 545.378 591.64H554.828C555.626 591.64 556.193 591.829 556.529 592.207C556.907 592.543 557.096 593.11 557.096 593.908V634.732C557.096 635.53 556.907 636.118 556.529 636.496C556.193 636.832 555.626 637 554.828 637H545.378C544.58 637 543.992 636.832 543.614 636.496C543.278 636.118 543.11 635.53 543.11 634.732V626.983L532.337 613.942V634.732C532.337 635.53 532.148 636.118 531.77 636.496C531.434 636.832 530.867 637 530.069 637ZM591.654 637H582.204C581.406 637 580.818 636.832 580.44 636.496C580.104 636.118 579.936 635.53 579.936 634.732V593.908C579.936 593.11 580.104 592.543 580.44 592.207C580.818 591.829 581.406 591.64 582.204 591.64H588.756C589.554 591.64 590.226 591.766 590.772 592.018C591.36 592.27 591.927 592.711 592.473 593.341L604.695 607.327V593.908C604.695 593.11 604.863 592.543 605.199 592.207C605.577 591.829 606.165 591.64 606.963 591.64H616.413C617.211 591.64 617.778 591.829 618.114 592.207C618.492 592.543 618.681 593.11 618.681 593.908V634.732C618.681 635.53 618.492 636.118 618.114 636.496C617.778 636.832 617.211 637 616.413 637H606.963C606.165 637 605.577 636.832 605.199 636.496C604.863 636.118 604.695 635.53 604.695 634.732V626.983L593.922 613.942V634.732C593.922 635.53 593.733 636.118 593.355 636.496C593.019 636.832 592.452 637 591.654 637ZM665.8 625.093C665.8 627.025 665.506 628.789 664.918 630.385C664.372 631.939 663.364 633.283 661.894 634.417C660.466 635.509 658.471 636.37 655.909 637C653.389 637.63 650.176 637.945 646.27 637.945C642.364 637.945 639.13 637.63 636.568 637C634.006 636.37 631.99 635.509 630.52 634.417C629.092 633.283 628.084 631.939 627.496 630.385C626.95 628.789 626.677 627.025 626.677 625.093V603.61C626.677 601.678 626.95 599.935 627.496 598.381C628.084 596.785 629.092 595.42 630.52 594.286C631.99 593.152 634.006 592.27 636.568 591.64C639.13 591.01 642.364 590.695 646.27 590.695C650.176 590.695 653.389 591.01 655.909 591.64C658.471 592.27 660.466 593.152 661.894 594.286C663.364 595.42 664.372 596.785 664.918 598.381C665.506 599.935 665.8 601.678 665.8 603.61V625.093ZM640.978 622.825C640.978 623.665 641.293 624.379 641.923 624.967C642.553 625.513 644.002 625.786 646.27 625.786C648.538 625.786 649.987 625.513 650.617 624.967C651.247 624.379 651.562 623.665 651.562 622.825V605.878C651.562 605.08 651.247 604.408 650.617 603.862C649.987 603.274 648.538 602.98 646.27 602.98C644.002 602.98 642.553 603.274 641.923 603.862C641.293 604.408 640.978 605.08 640.978 605.878V622.825ZM712.44 625.093C712.44 627.025 712.146 628.789 711.558 630.385C711.012 631.939 710.004 633.283 708.534 634.417C707.106 635.509 705.132 636.37 702.612 637C700.092 637.63 696.879 637.945 692.973 637.945C689.067 637.945 685.854 637.63 683.334 637C680.814 636.37 678.819 635.509 677.349 634.417C675.921 633.283 674.913 631.939 674.325 630.385C673.779 628.789 673.506 627.025 673.506 625.093V593.908C673.506 593.11 673.674 592.543 674.01 592.207C674.388 591.829 674.976 591.64 675.774 591.64H685.665C686.463 591.64 687.03 591.829 687.366 592.207C687.744 592.543 687.933 593.11 687.933 593.908V622.636C687.933 623.476 688.248 624.19 688.878 624.778C689.508 625.324 690.915 625.597 693.099 625.597C695.325 625.597 696.753 625.324 697.383 624.778C698.013 624.19 698.328 623.476 698.328 622.636V593.908C698.328 593.11 698.496 592.543 698.832 592.207C699.21 591.829 699.798 591.64 700.596 591.64H710.172C710.97 591.64 711.537 591.829 711.873 592.207C712.251 592.543 712.44 593.11 712.44 593.908V625.093ZM747.663 637H731.283C730.485 637 729.813 636.853 729.267 636.559C728.763 636.265 728.364 635.719 728.07 634.921L721.896 619.486C721.518 618.562 721.203 617.764 720.951 617.092C720.699 616.378 720.489 615.706 720.321 615.076C720.153 614.446 720.027 613.795 719.943 613.123C719.901 612.409 719.88 611.548 719.88 610.54V593.908C719.88 593.11 720.048 592.543 720.384 592.207C720.762 591.829 721.35 591.64 722.148 591.64H732.165C732.963 591.64 733.572 591.829 733.992 592.207C734.412 592.543 734.622 593.11 734.622 593.908V611.296C734.622 611.716 734.664 612.136 734.748 612.556C734.832 612.976 734.958 613.417 735.126 613.879L738.087 622.699C738.213 623.119 738.36 623.413 738.528 623.581C738.696 623.707 738.948 623.77 739.284 623.77H739.977C740.313 623.77 740.565 623.707 740.733 623.581C740.901 623.413 741.048 623.119 741.174 622.699L744.135 613.816C744.303 613.354 744.429 612.913 744.513 612.493C744.597 612.073 744.639 611.653 744.639 611.233V593.908C744.639 593.11 744.807 592.543 745.143 592.207C745.521 591.829 746.109 591.64 746.907 591.64H756.798C757.596 591.64 758.163 591.829 758.499 592.207C758.877 592.543 759.066 593.11 759.066 593.908V610.54C759.066 611.548 759.024 612.409 758.94 613.123C758.898 613.795 758.793 614.446 758.625 615.076C758.457 615.706 758.247 616.378 757.995 617.092C757.743 617.764 757.428 618.562 757.05 619.486L750.876 634.921C750.582 635.719 750.162 636.265 749.616 636.559C749.112 636.853 748.461 637 747.663 637ZM798.344 637H769.112C768.314 637 767.726 636.832 767.348 636.496C767.012 636.118 766.844 635.53 766.844 634.732V593.908C766.844 593.11 767.012 592.543 767.348 592.207C767.726 591.829 768.314 591.64 769.112 591.64H798.344C799.142 591.64 799.709 591.829 800.045 592.207C800.423 592.543 800.612 593.11 800.612 593.908V601.279C800.612 602.077 800.423 602.665 800.045 603.043C799.709 603.379 799.142 603.547 798.344 603.547H780.956V608.398H793.241C794.039 608.398 794.606 608.587 794.942 608.965C795.32 609.301 795.509 609.868 795.509 610.666V617.407C795.509 618.205 795.32 618.793 794.942 619.171C794.606 619.507 794.039 619.675 793.241 619.675H780.956V625.093H798.344C799.142 625.093 799.709 625.282 800.045 625.66C800.423 625.996 800.612 626.563 800.612 627.361V634.732C800.612 635.53 800.423 636.118 800.045 636.496C799.709 636.832 799.142 637 798.344 637ZM824.508 604.87L821.547 614.446H831.438L828.477 604.87C828.309 604.492 828.12 604.219 827.91 604.051C827.742 603.883 827.532 603.799 827.28 603.799H825.705C825.453 603.799 825.222 603.883 825.012 604.051C824.844 604.219 824.676 604.492 824.508 604.87ZM820.917 634.732C820.917 635.53 820.728 636.118 820.35 636.496C820.014 636.832 819.447 637 818.649 637H809.388C808.59 637 808.002 636.832 807.624 636.496C807.288 636.118 807.12 635.53 807.12 634.732V618.1C807.12 616.84 807.309 615.391 807.687 613.753C808.107 612.115 808.737 610.204 809.577 608.02L815.058 593.719C815.31 593.005 815.688 592.48 816.192 592.144C816.738 591.808 817.431 591.64 818.271 591.64H835.218C836.016 591.64 836.667 591.808 837.171 592.144C837.717 592.48 838.116 593.005 838.368 593.719L843.849 608.02C844.689 610.204 845.298 612.115 845.676 613.753C846.096 615.391 846.306 616.84 846.306 618.1V634.732C846.306 635.53 846.117 636.118 845.739 636.496C845.403 636.832 844.836 637 844.038 637H834.525C833.685 637 833.055 636.832 832.635 636.496C832.257 636.118 832.068 635.53 832.068 634.732V625.912H820.917V634.732ZM892.703 625.093C892.703 627.025 892.409 628.789 891.821 630.385C891.275 631.939 890.267 633.283 888.797 634.417C887.369 635.509 885.395 636.37 882.875 637C880.355 637.63 877.142 637.945 873.236 637.945C869.33 637.945 866.117 637.63 863.597 637C861.077 636.37 859.082 635.509 857.612 634.417C856.184 633.283 855.176 631.939 854.588 630.385C854.042 628.789 853.769 627.025 853.769 625.093V593.908C853.769 593.11 853.937 592.543 854.273 592.207C854.651 591.829 855.239 591.64 856.037 591.64H865.928C866.726 591.64 867.293 591.829 867.629 592.207C868.007 592.543 868.196 593.11 868.196 593.908V622.636C868.196 623.476 868.511 624.19 869.141 624.778C869.771 625.324 871.178 625.597 873.362 625.597C875.588 625.597 877.016 625.324 877.646 624.778C878.276 624.19 878.591 623.476 878.591 622.636V593.908C878.591 593.11 878.759 592.543 879.095 592.207C879.473 591.829 880.061 591.64 880.859 591.64H890.435C891.233 591.64 891.8 591.829 892.136 592.207C892.514 592.543 892.703 593.11 892.703 593.908V625.093ZM914.633 634.732C914.633 635.53 914.444 636.118 914.066 636.496C913.73 636.832 913.163 637 912.365 637H902.789C901.991 637 901.403 636.832 901.025 636.496C900.689 636.118 900.521 635.53 900.521 634.732V627.991C900.521 626.059 900.689 624.61 901.025 623.644C901.361 622.678 901.991 621.544 902.915 620.242L908.018 613.375L902.915 606.508C901.949 605.206 901.298 604.072 900.962 603.106C900.668 602.14 900.521 600.691 900.521 598.759V593.908C900.521 593.11 900.689 592.543 901.025 592.207C901.403 591.829 901.991 591.64 902.789 591.64H912.491C913.289 591.64 913.856 591.829 914.192 592.207C914.57 592.543 914.759 593.11 914.759 593.908V598.255C914.759 598.675 914.78 599.116 914.822 599.578C914.864 600.04 915.032 600.481 915.326 600.901L918.098 604.87C918.308 605.206 918.518 605.479 918.728 605.689C918.98 605.857 919.274 605.941 919.61 605.941H920.366C920.702 605.941 920.975 605.857 921.185 605.689C921.395 605.479 921.626 605.206 921.878 604.87L924.713 600.901C925.007 600.481 925.175 600.04 925.217 599.578C925.259 599.116 925.28 598.675 925.28 598.255V593.908C925.28 593.11 925.448 592.543 925.784 592.207C926.162 591.829 926.75 591.64 927.548 591.64H937.124C937.922 591.64 938.489 591.829 938.825 592.207C939.203 592.543 939.392 593.11 939.392 593.908V598.759C939.392 600.691 939.224 602.14 938.888 603.106C938.552 604.072 937.922 605.206 936.998 606.508L931.895 613.438L936.998 620.242C937.964 621.544 938.594 622.678 938.888 623.644C939.224 624.61 939.392 626.059 939.392 627.991V634.732C939.392 635.53 939.203 636.118 938.825 636.496C938.489 636.832 937.922 637 937.124 637H927.548C926.75 637 926.162 636.832 925.784 636.496C925.448 636.118 925.28 635.53 925.28 634.732V628.495C925.28 628.075 925.259 627.634 925.217 627.172C925.175 626.71 925.007 626.269 924.713 625.849L921.941 621.88C921.689 621.502 921.458 621.229 921.248 621.061C921.038 620.893 920.765 620.809 920.429 620.809H919.547C919.211 620.809 918.938 620.893 918.728 621.061C918.518 621.229 918.287 621.502 918.035 621.88L915.2 625.849C914.906 626.269 914.738 626.71 914.696 627.172C914.654 627.634 914.633 628.075 914.633 628.495V634.732ZM973.344 637H963.957C963.159 637 962.571 636.832 962.193 636.496C961.857 636.118 961.689 635.53 961.689 634.732V593.908C961.689 593.11 961.857 592.543 962.193 592.207C962.571 591.829 963.159 591.64 963.957 591.64H974.1C974.772 591.64 975.318 591.787 975.738 592.081C976.2 592.375 976.62 592.858 976.998 593.53L982.668 603.799C982.878 604.177 983.046 604.45 983.172 604.618C983.34 604.786 983.55 604.87 983.802 604.87H984.369C984.621 604.87 984.81 604.786 984.936 604.618C985.104 604.45 985.293 604.177 985.503 603.799L991.11 593.53C991.488 592.858 991.887 592.375 992.307 592.081C992.769 591.787 993.336 591.64 994.008 591.64H1004.21C1005.01 591.64 1005.58 591.829 1005.91 592.207C1006.29 592.543 1006.48 593.11 1006.48 593.908V634.732C1006.48 635.53 1006.29 636.118 1005.91 636.496C1005.58 636.832 1005.01 637 1004.21 637H994.512C993.714 637 993.126 636.832 992.748 636.496C992.412 636.118 992.244 635.53 992.244 634.732V612.556L988.527 619.423C988.149 620.137 987.687 620.662 987.141 620.998C986.637 621.292 985.986 621.439 985.188 621.439H982.668C981.87 621.439 981.198 621.292 980.652 620.998C980.148 620.662 979.707 620.137 979.329 619.423L975.612 612.556V634.732C975.612 635.53 975.423 636.118 975.045 636.496C974.709 636.832 974.142 637 973.344 637ZM1053.58 625.093C1053.58 627.025 1053.29 628.789 1052.7 630.385C1052.15 631.939 1051.15 633.283 1049.68 634.417C1048.25 635.509 1046.25 636.37 1043.69 637C1041.17 637.63 1037.96 637.945 1034.05 637.945C1030.15 637.945 1026.91 637.63 1024.35 637C1021.79 636.37 1019.77 635.509 1018.3 634.417C1016.87 633.283 1015.87 631.939 1015.28 630.385C1014.73 628.789 1014.46 627.025 1014.46 625.093V603.61C1014.46 601.678 1014.73 599.935 1015.28 598.381C1015.87 596.785 1016.87 595.42 1018.3 594.286C1019.77 593.152 1021.79 592.27 1024.35 591.64C1026.91 591.01 1030.15 590.695 1034.05 590.695C1037.96 590.695 1041.17 591.01 1043.69 591.64C1046.25 592.27 1048.25 593.152 1049.68 594.286C1051.15 595.42 1052.15 596.785 1052.7 598.381C1053.29 599.935 1053.58 601.678 1053.58 603.61V625.093ZM1028.76 622.825C1028.76 623.665 1029.08 624.379 1029.71 624.967C1030.34 625.513 1031.78 625.786 1034.05 625.786C1036.32 625.786 1037.77 625.513 1038.4 624.967C1039.03 624.379 1039.34 623.665 1039.34 622.825V605.878C1039.34 605.08 1039.03 604.408 1038.4 603.862C1037.77 603.274 1036.32 602.98 1034.05 602.98C1031.78 602.98 1030.34 603.274 1029.71 603.862C1029.08 604.408 1028.76 605.08 1028.76 605.878V622.825ZM1073.32 637H1063.87C1063.07 637 1062.48 636.832 1062.11 636.496C1061.77 636.118 1061.6 635.53 1061.6 634.732V593.908C1061.6 593.11 1061.77 592.543 1062.11 592.207C1062.48 591.829 1063.07 591.64 1063.87 591.64H1070.42C1071.22 591.64 1071.89 591.766 1072.44 592.018C1073.03 592.27 1073.59 592.711 1074.14 593.341L1086.36 607.327V593.908C1086.36 593.11 1086.53 592.543 1086.87 592.207C1087.24 591.829 1087.83 591.64 1088.63 591.64H1098.08C1098.88 591.64 1099.44 591.829 1099.78 592.207C1100.16 592.543 1100.35 593.11 1100.35 593.908V634.732C1100.35 635.53 1100.16 636.118 1099.78 636.496C1099.44 636.832 1098.88 637 1098.08 637H1088.63C1087.83 637 1087.24 636.832 1086.87 636.496C1086.53 636.118 1086.36 635.53 1086.36 634.732V626.983L1075.59 613.942V634.732C1075.59 635.53 1075.4 636.118 1075.02 636.496C1074.69 636.832 1074.12 637 1073.32 637ZM1132.54 637H1111.31C1110.51 637 1109.92 636.832 1109.54 636.496C1109.21 636.118 1109.04 635.53 1109.04 634.732V593.908C1109.04 593.11 1109.21 592.543 1109.54 592.207C1109.92 591.829 1110.51 591.64 1111.31 591.64H1132.54C1137.79 591.64 1141.67 592.69 1144.19 594.79C1146.75 596.89 1148.03 600.124 1148.03 604.492V624.148C1148.03 628.516 1146.75 631.75 1144.19 633.85C1141.67 635.95 1137.79 637 1132.54 637ZM1123.34 603.673V625.093H1130.84C1131.84 625.093 1132.58 624.841 1133.04 624.337C1133.54 623.833 1133.8 623.056 1133.8 622.006V606.697C1133.8 605.647 1133.54 604.891 1133.04 604.429C1132.58 603.925 1131.84 603.673 1130.84 603.673H1123.34ZM1187.54 637H1158.31C1157.51 637 1156.92 636.832 1156.55 636.496C1156.21 636.118 1156.04 635.53 1156.04 634.732V593.908C1156.04 593.11 1156.21 592.543 1156.55 592.207C1156.92 591.829 1157.51 591.64 1158.31 591.64H1187.54C1188.34 591.64 1188.91 591.829 1189.24 592.207C1189.62 592.543 1189.81 593.11 1189.81 593.908V601.279C1189.81 602.077 1189.62 602.665 1189.24 603.043C1188.91 603.379 1188.34 603.547 1187.54 603.547H1170.15V608.398H1182.44C1183.24 608.398 1183.8 608.587 1184.14 608.965C1184.52 609.301 1184.71 609.868 1184.71 610.666V617.407C1184.71 618.205 1184.52 618.793 1184.14 619.171C1183.8 619.507 1183.24 619.675 1182.44 619.675H1170.15V625.093H1187.54C1188.34 625.093 1188.91 625.282 1189.24 625.66C1189.62 625.996 1189.81 626.563 1189.81 627.361V634.732C1189.81 635.53 1189.62 636.118 1189.24 636.496C1188.91 636.832 1188.34 637 1187.54 637ZM502.847 713H473.615C472.817 713 472.229 712.832 471.851 712.496C471.515 712.118 471.347 711.53 471.347 710.732V669.908C471.347 669.11 471.515 668.543 471.851 668.207C472.229 667.829 472.817 667.64 473.615 667.64H502.847C503.645 667.64 504.212 667.829 504.548 668.207C504.926 668.543 505.115 669.11 505.115 669.908V677.279C505.115 678.077 504.926 678.665 504.548 679.043C504.212 679.379 503.645 679.547 502.847 679.547H485.459V684.398H497.744C498.542 684.398 499.109 684.587 499.445 684.965C499.823 685.301 500.012 685.868 500.012 686.666V693.407C500.012 694.205 499.823 694.793 499.445 695.171C499.109 695.507 498.542 695.675 497.744 695.675H485.459V701.093H502.847C503.645 701.093 504.212 701.282 504.548 701.66C504.926 701.996 505.115 702.563 505.115 703.361V710.732C505.115 711.53 504.926 712.118 504.548 712.496C504.212 712.832 503.645 713 502.847 713ZM500.39 662.852L478.403 665.561C477.689 665.645 477.143 665.498 476.765 665.12C476.429 664.742 476.261 664.196 476.261 663.482V657.434C476.261 656.636 476.429 656.09 476.765 655.796C477.143 655.46 477.731 655.25 478.529 655.166L500.516 652.457C501.23 652.373 501.755 652.52 502.091 652.898C502.469 653.276 502.658 653.822 502.658 654.536V660.584C502.658 661.382 502.469 661.949 502.091 662.285C501.755 662.579 501.188 662.768 500.39 662.852ZM535.948 718.67H526.246C525.448 718.67 524.86 718.481 524.482 718.103C524.146 717.767 523.978 717.2 523.978 716.402V712.937C519.106 712.223 515.809 710.774 514.087 708.59C512.407 706.364 511.567 703.676 511.567 700.526V679.61C511.567 677.678 511.84 675.935 512.386 674.381C512.974 672.785 513.982 671.42 515.41 670.286C516.88 669.152 518.896 668.27 521.458 667.64C524.02 667.01 527.254 666.695 531.16 666.695C535.066 666.695 538.279 667.01 540.799 667.64C543.361 668.27 545.356 669.152 546.784 670.286C548.254 671.42 549.262 672.785 549.808 674.381C550.396 675.935 550.69 677.678 550.69 679.61V700.526C550.69 702.122 550.501 703.613 550.123 704.999C549.745 706.343 549.094 707.54 548.17 708.59C547.246 709.64 545.965 710.543 544.327 711.299C542.731 712.055 540.694 712.601 538.216 712.937V716.402C538.216 717.2 538.027 717.767 537.649 718.103C537.313 718.481 536.746 718.67 535.948 718.67ZM525.868 699.14C525.868 699.98 526.183 700.694 526.813 701.282C527.443 701.828 528.892 702.101 531.16 702.101C533.428 702.101 534.877 701.828 535.507 701.282C536.137 700.694 536.452 699.98 536.452 699.14V681.941C536.452 681.143 536.137 680.471 535.507 679.925C534.877 679.337 533.428 679.043 531.16 679.043C528.892 679.043 527.443 679.337 526.813 679.925C526.183 680.471 525.868 681.143 525.868 681.941V699.14ZM597.329 701.093C597.329 703.025 597.035 704.789 596.447 706.385C595.901 707.939 594.893 709.283 593.423 710.417C591.995 711.509 590.021 712.37 587.501 713C584.981 713.63 581.768 713.945 577.862 713.945C573.956 713.945 570.743 713.63 568.223 713C565.703 712.37 563.708 711.509 562.238 710.417C560.81 709.283 559.802 707.939 559.214 706.385C558.668 704.789 558.395 703.025 558.395 701.093V669.908C558.395 669.11 558.563 668.543 558.899 668.207C559.277 667.829 559.865 667.64 560.663 667.64H570.554C571.352 667.64 571.919 667.829 572.255 668.207C572.633 668.543 572.822 669.11 572.822 669.908V698.636C572.822 699.476 573.137 700.19 573.767 700.778C574.397 701.324 575.804 701.597 577.988 701.597C580.214 701.597 581.642 701.324 582.272 700.778C582.902 700.19 583.217 699.476 583.217 698.636V669.908C583.217 669.11 583.385 668.543 583.721 668.207C584.099 667.829 584.687 667.64 585.485 667.64H595.061C595.859 667.64 596.426 667.829 596.762 668.207C597.14 668.543 597.329 669.11 597.329 669.908V701.093ZM606.974 713C606.176 713 605.588 712.832 605.21 712.496C604.874 712.118 604.706 711.53 604.706 710.732V703.235C604.706 702.437 604.874 701.87 605.21 701.534C605.588 701.156 606.176 700.967 606.974 700.967H613.211V679.799H606.974C606.176 679.799 605.588 679.631 605.21 679.295C604.874 678.917 604.706 678.329 604.706 677.531V669.908C604.706 669.11 604.874 668.543 605.21 668.207C605.588 667.829 606.176 667.64 606.974 667.64H633.812C634.61 667.64 635.177 667.829 635.513 668.207C635.891 668.543 636.08 669.11 636.08 669.908V677.531C636.08 678.329 635.891 678.917 635.513 679.295C635.177 679.631 634.61 679.799 633.812 679.799H627.701V700.967H633.812C634.61 700.967 635.177 701.156 635.513 701.534C635.891 701.87 636.08 702.437 636.08 703.235V710.732C636.08 711.53 635.891 712.118 635.513 712.496C635.177 712.832 634.61 713 633.812 713H606.974ZM665.279 713H655.073C654.275 713 653.687 712.832 653.309 712.496C652.973 712.118 652.805 711.53 652.805 710.732V679.799H643.544C642.746 679.799 642.158 679.631 641.78 679.295C641.444 678.917 641.276 678.329 641.276 677.531V669.908C641.276 669.11 641.444 668.543 641.78 668.207C642.158 667.829 642.746 667.64 643.544 667.64H676.808C677.606 667.64 678.173 667.829 678.509 668.207C678.887 668.543 679.076 669.11 679.076 669.908V677.531C679.076 678.329 678.887 678.917 678.509 679.295C678.173 679.631 677.606 679.799 676.808 679.799H667.547V710.732C667.547 711.53 667.358 712.118 666.98 712.496C666.644 712.832 666.077 713 665.279 713ZM699.123 680.87L696.162 690.446H706.053L703.092 680.87C702.924 680.492 702.735 680.219 702.525 680.051C702.357 679.883 702.147 679.799 701.895 679.799H700.32C700.068 679.799 699.837 679.883 699.627 680.051C699.459 680.219 699.291 680.492 699.123 680.87ZM695.532 710.732C695.532 711.53 695.343 712.118 694.965 712.496C694.629 712.832 694.062 713 693.264 713H684.003C683.205 713 682.617 712.832 682.239 712.496C681.903 712.118 681.735 711.53 681.735 710.732V694.1C681.735 692.84 681.924 691.391 682.302 689.753C682.722 688.115 683.352 686.204 684.192 684.02L689.673 669.719C689.925 669.005 690.303 668.48 690.807 668.144C691.353 667.808 692.046 667.64 692.886 667.64H709.833C710.631 667.64 711.282 667.808 711.786 668.144C712.332 668.48 712.731 669.005 712.983 669.719L718.464 684.02C719.304 686.204 719.913 688.115 720.291 689.753C720.711 691.391 720.921 692.84 720.921 694.1V710.732C720.921 711.53 720.732 712.118 720.354 712.496C720.018 712.832 719.451 713 718.653 713H709.14C708.3 713 707.67 712.832 707.25 712.496C706.872 712.118 706.683 711.53 706.683 710.732V701.912H695.532V710.732ZM755.16 713H730.968C730.17 713 729.582 712.832 729.204 712.496C728.868 712.118 728.7 711.53 728.7 710.732V669.908C728.7 669.11 728.868 668.543 729.204 668.207C729.582 667.829 730.17 667.64 730.968 667.64H751.065C755.181 667.64 758.226 668.438 760.2 670.034C762.174 671.588 763.161 674.003 763.161 677.279V680.303C763.161 682.067 762.846 683.516 762.216 684.65C761.628 685.742 760.704 686.561 759.444 687.107C762.132 687.359 764.127 688.283 765.429 689.879C766.731 691.475 767.382 693.806 767.382 696.872V702.668C767.382 706.196 766.374 708.8 764.358 710.48C762.384 712.16 759.318 713 755.16 713ZM742.875 678.35V685.154H748.23C749.028 685.154 749.616 684.944 749.994 684.524C750.414 684.104 750.624 683.474 750.624 682.634V680.87C750.624 680.03 750.414 679.4 749.994 678.98C749.616 678.56 749.028 678.35 748.23 678.35H742.875ZM742.875 694.856V702.29H751.065C751.863 702.29 752.451 702.08 752.829 701.66C753.249 701.24 753.459 700.61 753.459 699.77V697.313C753.459 696.473 753.249 695.864 752.829 695.486C752.451 695.066 751.863 694.856 751.065 694.856H742.875ZM808.685 713H776.618C775.82 713 775.232 712.832 774.854 712.496C774.518 712.118 774.35 711.53 774.35 710.732V669.908C774.35 669.11 774.518 668.543 774.854 668.207C775.232 667.829 775.82 667.64 776.618 667.64H786.383C787.181 667.64 787.748 667.829 788.084 668.207C788.462 668.543 788.651 669.11 788.651 669.908V701.093H797.282V690.887C797.282 690.089 797.45 689.522 797.786 689.186C798.164 688.808 798.752 688.619 799.55 688.619H808.685C809.483 688.619 810.05 688.808 810.386 689.186C810.764 689.522 810.953 690.089 810.953 690.887V710.732C810.953 711.53 810.764 712.118 810.386 712.496C810.05 712.832 809.483 713 808.685 713ZM849.655 713H820.423C819.625 713 819.037 712.832 818.659 712.496C818.323 712.118 818.155 711.53 818.155 710.732V669.908C818.155 669.11 818.323 668.543 818.659 668.207C819.037 667.829 819.625 667.64 820.423 667.64H849.655C850.453 667.64 851.02 667.829 851.356 668.207C851.734 668.543 851.923 669.11 851.923 669.908V677.279C851.923 678.077 851.734 678.665 851.356 679.043C851.02 679.379 850.453 679.547 849.655 679.547H832.267V684.398H844.552C845.35 684.398 845.917 684.587 846.253 684.965C846.631 685.301 846.82 685.868 846.82 686.666V693.407C846.82 694.205 846.631 694.793 846.253 695.171C845.917 695.507 845.35 695.675 844.552 695.675H832.267V701.093H849.655C850.453 701.093 851.02 701.282 851.356 701.66C851.734 701.996 851.923 702.563 851.923 703.361V710.732C851.923 711.53 851.734 712.118 851.356 712.496C851.02 712.832 850.453 713 849.655 713ZM889.661 680.87L886.7 690.446H896.591L893.63 680.87C893.462 680.492 893.273 680.219 893.063 680.051C892.895 679.883 892.685 679.799 892.433 679.799H890.858C890.606 679.799 890.375 679.883 890.165 680.051C889.997 680.219 889.829 680.492 889.661 680.87ZM886.07 710.732C886.07 711.53 885.881 712.118 885.503 712.496C885.167 712.832 884.6 713 883.802 713H874.541C873.743 713 873.155 712.832 872.777 712.496C872.441 712.118 872.273 711.53 872.273 710.732V694.1C872.273 692.84 872.462 691.391 872.84 689.753C873.26 688.115 873.89 686.204 874.73 684.02L880.211 669.719C880.463 669.005 880.841 668.48 881.345 668.144C881.891 667.808 882.584 667.64 883.424 667.64H900.371C901.169 667.64 901.82 667.808 902.324 668.144C902.87 668.48 903.269 669.005 903.521 669.719L909.002 684.02C909.842 686.204 910.451 688.115 910.829 689.753C911.249 691.391 911.459 692.84 911.459 694.1V710.732C911.459 711.53 911.27 712.118 910.892 712.496C910.556 712.832 909.989 713 909.191 713H899.678C898.838 713 898.208 712.832 897.788 712.496C897.41 712.118 897.221 711.53 897.221 710.732V701.912H886.07V710.732ZM902.891 665.561L880.904 662.852C880.106 662.768 879.518 662.579 879.14 662.285C878.804 661.949 878.636 661.382 878.636 660.584V654.536C878.636 653.822 878.804 653.276 879.14 652.898C879.518 652.52 880.064 652.373 880.778 652.457L902.765 655.166C903.563 655.25 904.13 655.46 904.466 655.796C904.844 656.09 905.033 656.636 905.033 657.434V663.482C905.033 664.196 904.844 664.742 904.466 665.12C904.13 665.498 903.605 665.645 902.891 665.561ZM956.768 718.67H947.066C946.268 718.67 945.68 718.481 945.302 718.103C944.966 717.767 944.798 717.2 944.798 716.402V712.937C939.926 712.223 936.629 710.774 934.907 708.59C933.227 706.364 932.387 703.676 932.387 700.526V679.61C932.387 677.678 932.66 675.935 933.206 674.381C933.794 672.785 934.802 671.42 936.23 670.286C937.7 669.152 939.716 668.27 942.278 667.64C944.84 667.01 948.074 666.695 951.98 666.695C955.886 666.695 959.099 667.01 961.619 667.64C964.181 668.27 966.176 669.152 967.604 670.286C969.074 671.42 970.082 672.785 970.628 674.381C971.216 675.935 971.51 677.678 971.51 679.61V700.526C971.51 702.122 971.321 703.613 970.943 704.999C970.565 706.343 969.914 707.54 968.99 708.59C968.066 709.64 966.785 710.543 965.147 711.299C963.551 712.055 961.514 712.601 959.036 712.937V716.402C959.036 717.2 958.847 717.767 958.469 718.103C958.133 718.481 957.566 718.67 956.768 718.67ZM946.688 699.14C946.688 699.98 947.003 700.694 947.633 701.282C948.263 701.828 949.712 702.101 951.98 702.101C954.248 702.101 955.697 701.828 956.327 701.282C956.957 700.694 957.272 699.98 957.272 699.14V681.941C957.272 681.143 956.957 680.471 956.327 679.925C955.697 679.337 954.248 679.043 951.98 679.043C949.712 679.043 948.263 679.337 947.633 679.925C947.003 680.471 946.688 681.143 946.688 681.941V699.14ZM1018.15 701.093C1018.15 703.025 1017.86 704.789 1017.27 706.385C1016.72 707.939 1015.71 709.283 1014.24 710.417C1012.82 711.509 1010.84 712.37 1008.32 713C1005.8 713.63 1002.59 713.945 998.683 713.945C994.777 713.945 991.564 713.63 989.044 713C986.524 712.37 984.529 711.509 983.059 710.417C981.631 709.283 980.623 707.939 980.035 706.385C979.489 704.789 979.216 703.025 979.216 701.093V669.908C979.216 669.11 979.384 668.543 979.72 668.207C980.098 667.829 980.686 667.64 981.484 667.64H991.375C992.173 667.64 992.74 667.829 993.076 668.207C993.454 668.543 993.643 669.11 993.643 669.908V698.636C993.643 699.476 993.958 700.19 994.588 700.778C995.218 701.324 996.625 701.597 998.809 701.597C1001.03 701.597 1002.46 701.324 1003.09 700.778C1003.72 700.19 1004.04 699.476 1004.04 698.636V669.908C1004.04 669.11 1004.21 668.543 1004.54 668.207C1004.92 667.829 1005.51 667.64 1006.31 667.64H1015.88C1016.68 667.64 1017.25 667.829 1017.58 668.207C1017.96 668.543 1018.15 669.11 1018.15 669.908V701.093ZM1058.03 713H1028.8C1028 713 1027.42 712.832 1027.04 712.496C1026.7 712.118 1026.53 711.53 1026.53 710.732V669.908C1026.53 669.11 1026.7 668.543 1027.04 668.207C1027.42 667.829 1028 667.64 1028.8 667.64H1058.03C1058.83 667.64 1059.4 667.829 1059.74 668.207C1060.11 668.543 1060.3 669.11 1060.3 669.908V677.279C1060.3 678.077 1060.11 678.665 1059.74 679.043C1059.4 679.379 1058.83 679.547 1058.03 679.547H1040.65V684.398H1052.93C1053.73 684.398 1054.3 684.587 1054.63 684.965C1055.01 685.301 1055.2 685.868 1055.2 686.666V693.407C1055.2 694.205 1055.01 694.793 1054.63 695.171C1054.3 695.507 1053.73 695.675 1052.93 695.675H1040.65V701.093H1058.03C1058.83 701.093 1059.4 701.282 1059.74 701.66C1060.11 701.996 1060.3 702.563 1060.3 703.361V710.732C1060.3 711.53 1060.11 712.118 1059.74 712.496C1059.4 712.832 1058.83 713 1058.03 713ZM1102.09 713H1070.02C1069.23 713 1068.64 712.832 1068.26 712.496C1067.92 712.118 1067.76 711.53 1067.76 710.732V669.908C1067.76 669.11 1067.92 668.543 1068.26 668.207C1068.64 667.829 1069.23 667.64 1070.02 667.64H1079.79C1080.59 667.64 1081.15 667.829 1081.49 668.207C1081.87 668.543 1082.06 669.11 1082.06 669.908V701.093H1090.69V690.887C1090.69 690.089 1090.86 689.522 1091.19 689.186C1091.57 688.808 1092.16 688.619 1092.96 688.619H1102.09C1102.89 688.619 1103.46 688.808 1103.79 689.186C1104.17 689.522 1104.36 690.089 1104.36 690.887V710.732C1104.36 711.53 1104.17 712.118 1103.79 712.496C1103.46 712.832 1102.89 713 1102.09 713ZM1137.13 713H1127.36C1126.57 713 1125.98 712.832 1125.6 712.496C1125.26 712.118 1125.1 711.53 1125.1 710.732V669.908C1125.1 669.11 1125.26 668.543 1125.6 668.207C1125.98 667.829 1126.57 667.64 1127.36 667.64H1146.64C1152.35 667.64 1156.26 668.774 1158.36 671.042C1160.46 673.31 1161.51 676.271 1161.51 679.925V687.989C1161.51 691.643 1160.46 694.604 1158.36 696.872C1156.26 699.14 1152.35 700.274 1146.64 700.274H1139.4V710.732C1139.4 711.53 1139.21 712.118 1138.83 712.496C1138.49 712.832 1137.93 713 1137.13 713ZM1139.27 679.421V688.934H1144.94C1146.16 688.934 1146.96 688.619 1147.33 687.989C1147.71 687.359 1147.9 686.645 1147.9 685.847V682.508C1147.9 681.71 1147.71 680.996 1147.33 680.366C1146.96 679.736 1146.16 679.421 1144.94 679.421H1139.27ZM1182.28 678.98V687.044H1187C1188.09 687.044 1188.83 686.771 1189.21 686.225C1189.58 685.637 1189.77 684.923 1189.77 684.083V681.941C1189.77 681.101 1189.58 680.408 1189.21 679.862C1188.83 679.274 1188.09 678.98 1187 678.98H1182.28ZM1180.01 713H1170.31C1169.51 713 1168.92 712.832 1168.54 712.496C1168.21 712.118 1168.04 711.53 1168.04 710.732V669.908C1168.04 669.11 1168.21 668.543 1168.54 668.207C1168.92 667.829 1169.51 667.64 1170.31 667.64H1191.29C1195.99 667.64 1199.22 668.627 1200.99 670.601C1202.79 672.533 1203.7 675.053 1203.7 678.161V681.059C1203.7 682.823 1203.42 684.335 1202.88 685.595C1202.37 686.813 1201.47 687.695 1200.17 688.241C1202.44 688.493 1204.26 689.417 1205.65 691.013C1207.08 692.609 1207.79 694.73 1207.79 697.376V710.732C1207.79 711.53 1207.6 712.118 1207.22 712.496C1206.89 712.832 1206.32 713 1205.52 713H1195.76C1194.96 713 1194.37 712.832 1193.99 712.496C1193.66 712.118 1193.49 711.53 1193.49 710.732V701.093C1193.49 700.169 1193.3 699.497 1192.92 699.077C1192.59 698.615 1191.98 698.384 1191.1 698.384H1182.28V710.732C1182.28 711.53 1182.09 712.118 1181.71 712.496C1181.37 712.832 1180.81 713 1180.01 713ZM1216.12 713C1215.32 713 1214.73 712.832 1214.35 712.496C1214.02 712.118 1213.85 711.53 1213.85 710.732V703.235C1213.85 702.437 1214.02 701.87 1214.35 701.534C1214.73 701.156 1215.32 700.967 1216.12 700.967H1222.35V679.799H1216.12C1215.32 679.799 1214.73 679.631 1214.35 679.295C1214.02 678.917 1213.85 678.329 1213.85 677.531V669.908C1213.85 669.11 1214.02 668.543 1214.35 668.207C1214.73 667.829 1215.32 667.64 1216.12 667.64H1242.96C1243.75 667.64 1244.32 667.829 1244.66 668.207C1245.03 668.543 1245.22 669.11 1245.22 669.908V677.531C1245.22 678.329 1245.03 678.917 1244.66 679.295C1244.32 679.631 1243.75 679.799 1242.96 679.799H1236.84V700.967H1242.96C1243.75 700.967 1244.32 701.156 1244.66 701.534C1245.03 701.87 1245.22 702.437 1245.22 703.235V710.732C1245.22 711.53 1245.03 712.118 1244.66 712.496C1244.32 712.832 1243.75 713 1242.96 713H1216.12ZM1266.55 710.732C1266.55 711.53 1266.36 712.118 1265.98 712.496C1265.64 712.832 1265.08 713 1264.28 713H1254.7C1253.91 713 1253.32 712.832 1252.94 712.496C1252.6 712.118 1252.44 711.53 1252.44 710.732V703.991C1252.44 702.059 1252.6 700.61 1252.94 699.644C1253.28 698.678 1253.91 697.544 1254.83 696.242L1259.93 689.375L1254.83 682.508C1253.86 681.206 1253.21 680.072 1252.88 679.106C1252.58 678.14 1252.44 676.691 1252.44 674.759V669.908C1252.44 669.11 1252.6 668.543 1252.94 668.207C1253.32 667.829 1253.91 667.64 1254.7 667.64H1264.41C1265.2 667.64 1265.77 667.829 1266.11 668.207C1266.48 668.543 1266.67 669.11 1266.67 669.908V674.255C1266.67 674.675 1266.69 675.116 1266.74 675.578C1266.78 676.04 1266.95 676.481 1267.24 676.901L1270.01 680.87C1270.22 681.206 1270.43 681.479 1270.64 681.689C1270.89 681.857 1271.19 681.941 1271.52 681.941H1272.28C1272.62 681.941 1272.89 681.857 1273.1 681.689C1273.31 681.479 1273.54 681.206 1273.79 680.87L1276.63 676.901C1276.92 676.481 1277.09 676.04 1277.13 675.578C1277.17 675.116 1277.19 674.675 1277.19 674.255V669.908C1277.19 669.11 1277.36 668.543 1277.7 668.207C1278.08 667.829 1278.66 667.64 1279.46 667.64H1289.04C1289.84 667.64 1290.4 667.829 1290.74 668.207C1291.12 668.543 1291.31 669.11 1291.31 669.908V674.759C1291.31 676.691 1291.14 678.14 1290.8 679.106C1290.47 680.072 1289.84 681.206 1288.91 682.508L1283.81 689.438L1288.91 696.242C1289.88 697.544 1290.51 698.678 1290.8 699.644C1291.14 700.61 1291.31 702.059 1291.31 703.991V710.732C1291.31 711.53 1291.12 712.118 1290.74 712.496C1290.4 712.832 1289.84 713 1289.04 713H1279.46C1278.66 713 1278.08 712.832 1277.7 712.496C1277.36 712.118 1277.19 711.53 1277.19 710.732V704.495C1277.19 704.075 1277.17 703.634 1277.13 703.172C1277.09 702.71 1276.92 702.269 1276.63 701.849L1273.86 697.88C1273.6 697.502 1273.37 697.229 1273.16 697.061C1272.95 696.893 1272.68 696.809 1272.34 696.809H1271.46C1271.13 696.809 1270.85 696.893 1270.64 697.061C1270.43 697.229 1270.2 697.502 1269.95 697.88L1267.11 701.849C1266.82 702.269 1266.65 702.71 1266.61 703.172C1266.57 703.634 1266.55 704.075 1266.55 704.495V710.732Z" fill="#040F48"/>
</g>
<defs>
<radialGradient id="paint0_radial_1_2" cx="0" cy="0" r="1" gradientTransform="matrix(13.9152 325.22 -325.22 14.9402 359 266)" gradientUnits="userSpaceOnUse">
<stop offset="0.201923" stop-color="#6BF8FF"/>
<stop offset="1" stop-color="#6BF8FF" stop-opacity="0"/>
</radialGradient>
<radialGradient id="paint1_radial_1_2" cx="0" cy="0" r="1" gradientUnits="userSpaceOnUse" gradientTransform="translate(1267 705) rotate(90) scale(356 367)">
<stop offset="0.144231" stop-color="#FFC66B"/>
<stop offset="1" stop-color="#FFC66B" stop-opacity="0"/>
</radialGradient>
<clipPath id="clip0_1_2">
<rect width="1800" height="932" fill="white"/>
</clipPath>
</defs>
</svg>
